<svg xmlns="http://www.w3.org/2000/svg" viewBox="0 0 64 64">
  <defs>
    <linearGradient id="sunGradient" x1="0%" y1="0%" x2="100%" y2="100%">
      <stop offset="0%" style="stop-color:#FFD700;stop-opacity:1" />
      <stop offset="100%" style="stop-color:#FF8C00;stop-opacity:1" />
    </linearGradient>
  </defs>
  <!-- Sun -->
  <circle cx="42" cy="22" r="12" fill="url(#sunGradient)" />
  <!-- Cloud -->
  <path d="M46,40 c0,6.6-5.4,12-12,12 H18 c-5.5,0-10-4.5-10-10 c0-4.8,3.4-8.9,8-9.8 c0.6-5.6,5.3-10.2,11-10.2 c3.4,0,6.4,1.6,8.4,4.1 c1.2-0.7,2.5-1.1,4-1.1 C42.1,25,46,28.9,46,33.7 c0,0.4,0,0.8-0.1,1.2 C45.9,34.9,46,35,46,35.1 V40z" fill="#FFFFFF" />
  <!-- Rain drop -->
  <path d="M22,58 c-1.1,0-2-0.9-2-2 c0-1.1,2-4,2-4 s2,2.9,2,4 C24,57.1,23.1,58,22,58z" fill="#00BFFF" />
  <path d="M30,60 c-1.1,0-2-0.9-2-2 c0-1.1,2-4,2-4 s2,2.9,2,4 C32,59.1,31.1,60,30,60z" fill="#00BFFF" />
</svg>